<svg width="36" height="39" viewBox="0 0 36 39" fill="none" xmlns="http://www.w3.org/2000/svg">
<g filter="url(#filter0_d_1181_4755)">
<path d="M26.6989 8.94902C31.5596 13.8914 31.4934 21.8383 26.5511 26.699C21.6087 31.5597 13.6618 31.4935 8.80107 26.5512C3.94037 21.6088 4.00657 13.6619 8.94892 8.80117L17.8979 9.30711e-05L26.6989 8.94902Z" fill="#0A91DD"/>
<path d="M26.3424 9.29962C31.0095 14.0451 30.9459 21.6755 26.2005 26.3425C21.455 31.0096 13.8246 30.946 9.15756 26.2006C4.49049 21.4551 4.55404 13.8247 9.29952 9.15765L17.892 0.707175L26.3424 9.29962Z" stroke="white"/>
</g>
<path d="M12.5283 15.0671H12.8637V17.2137H12.5283C12.4842 17.2137 12.4406 17.2045 12.3999 17.1865C12.3592 17.1685 12.3223 17.1422 12.2911 17.1089C12.26 17.0757 12.2353 17.0363 12.2184 16.9929C12.2015 16.9495 12.1929 16.9029 12.1929 16.856V15.4248C12.1929 15.3299 12.2282 15.2389 12.2911 15.1719C12.354 15.1048 12.4393 15.0671 12.5283 15.0671ZM22.5908 15.0671H22.2554V17.2137H22.5908C22.6348 17.2137 22.6785 17.2045 22.7192 17.1865C22.7599 17.1685 22.7968 17.1422 22.828 17.1089C22.8591 17.0757 22.8838 17.0363 22.9007 16.9929C22.9175 16.9495 22.9262 16.9029 22.9262 16.856V15.4248C22.9262 15.3299 22.8909 15.2389 22.828 15.1719C22.7651 15.1048 22.6798 15.0671 22.5908 15.0671ZM21.5846 14.3515V20.7915C21.5846 20.9813 21.5139 21.1633 21.3881 21.2975C21.2623 21.4317 21.0916 21.5071 20.9137 21.5071V22.2226C20.9137 22.4124 20.843 22.5944 20.7172 22.7286C20.5914 22.8628 20.4208 22.9382 20.2429 22.9382H19.572C19.3941 22.9382 19.2235 22.8628 19.0977 22.7286C18.9719 22.5944 18.9012 22.4124 18.9012 22.2226V21.5071H16.2179V22.2226C16.2179 22.4124 16.1472 22.5944 16.0214 22.7286C15.8956 22.8628 15.725 22.9382 15.547 22.9382H14.8762C14.6983 22.9382 14.5277 22.8628 14.4019 22.7286C14.2761 22.5944 14.2054 22.4124 14.2054 22.2226V21.5071C14.0275 21.5071 13.8568 21.4317 13.731 21.2975C13.6052 21.1633 13.5345 20.9813 13.5345 20.7915V14.3515C13.5345 13.7822 13.7466 13.2362 14.124 12.8336C14.5014 12.431 15.0133 12.2048 15.547 12.2048H19.572C20.1058 12.2048 20.6177 12.431 20.9951 12.8336C21.3725 13.2362 21.5846 13.7822 21.5846 14.3515ZM16.2179 13.6359H18.9012V12.9204H16.2179V13.6359ZM15.547 20.076C15.547 19.9344 15.5077 19.7961 15.434 19.6784C15.3603 19.5607 15.2555 19.469 15.1329 19.4149C15.0103 19.3607 14.8755 19.3465 14.7453 19.3741C14.6152 19.4018 14.4957 19.4699 14.4019 19.57C14.308 19.6701 14.2441 19.7976 14.2183 19.9364C14.1924 20.0752 14.2057 20.219 14.2564 20.3498C14.3072 20.4805 14.3932 20.5923 14.5035 20.6709C14.6138 20.7495 14.7435 20.7915 14.8762 20.7915C15.0541 20.7915 15.2248 20.7161 15.3506 20.5819C15.4764 20.4477 15.547 20.2657 15.547 20.076ZM20.9137 20.076C20.9137 19.9344 20.8744 19.7961 20.8007 19.6784C20.7269 19.5607 20.6222 19.469 20.4996 19.4149C20.377 19.3607 20.2421 19.3465 20.112 19.3741C19.9819 19.4018 19.8623 19.4699 19.7685 19.57C19.6747 19.6701 19.6108 19.7976 19.5849 19.9364C19.5591 20.0752 19.5723 20.219 19.6231 20.3498C19.6739 20.4805 19.7599 20.5923 19.8702 20.6709C19.9805 20.7495 20.1102 20.7915 20.2429 20.7915C20.4208 20.7915 20.5914 20.7161 20.7172 20.5819C20.843 20.4477 20.9137 20.2657 20.9137 20.076ZM20.9137 14.3515H14.2054V18.6448H20.9137V14.3515Z" fill="white"/>
<defs>
<filter id="filter0_d_1181_4755" x="1.19849" y="0" width="33.103" height="38.3018" filterUnits="userSpaceOnUse" color-interpolation-filters="sRGB">
<feFlood flood-opacity="0" result="BackgroundImageFix"/>
<feColorMatrix in="SourceAlpha" type="matrix" values="0 0 0 0 0 0 0 0 0 0 0 0 0 0 0 0 0 0 127 0" result="hardAlpha"/>
<feOffset dy="4"/>
<feGaussianBlur stdDeviation="2"/>
<feComposite in2="hardAlpha" operator="out"/>
<feColorMatrix type="matrix" values="0 0 0 0 0 0 0 0 0 0 0 0 0 0 0 0 0 0 0.25 0"/>
<feBlend mode="normal" in2="BackgroundImageFix" result="effect1_dropShadow_1181_4755"/>
<feBlend mode="normal" in="SourceGraphic" in2="effect1_dropShadow_1181_4755" result="shape"/>
</filter>
</defs>
</svg>
