<svg width="38" height="41" viewBox="0 0 38 41" fill="none" xmlns="http://www.w3.org/2000/svg">
<g filter="url(#filter0_d_1175_5889)">
<path d="M28.4687 10.69C33.4566 15.7617 33.3886 23.9165 28.317 28.9043V28.9043C23.2454 33.8922 15.0905 33.8242 10.1027 28.7526V28.7526C5.11487 23.681 5.1828 15.5262 10.2544 10.5383L19.4374 1.50704L28.4687 10.69Z" fill="#AFEA0D"/>
<path d="M10.605 10.8948L19.4315 2.21412L28.1122 11.0406C32.9064 15.9154 32.8411 23.7536 27.9664 28.5478C23.0917 33.3421 15.2534 33.2768 10.4592 28.402C5.66499 23.5273 5.73028 15.689 10.605 10.8948Z" stroke="white"/>
</g>
<path d="M14.3687 17.2237H14.723V19.4913H14.3687C14.3222 19.4913 14.2761 19.4815 14.2331 19.4625C14.1901 19.4435 14.1511 19.4157 14.1182 19.3806C14.0853 19.3455 14.0592 19.3038 14.0414 19.258C14.0236 19.2121 14.0144 19.163 14.0144 19.1133V17.6016C14.0144 17.5014 14.0517 17.4052 14.1182 17.3344C14.1846 17.2635 14.2747 17.2237 14.3687 17.2237ZM24.9981 17.2237H24.6438V19.4913H24.9981C25.0447 19.4913 25.0907 19.4815 25.1337 19.4625C25.1767 19.4435 25.2158 19.4157 25.2487 19.3806C25.2816 19.3455 25.3077 19.3038 25.3255 19.258C25.3433 19.2121 25.3524 19.163 25.3524 19.1133V17.6016C25.3524 17.5014 25.3151 17.4052 25.2487 17.3344C25.1822 17.2635 25.0921 17.2237 24.9981 17.2237ZM23.9352 16.4678V23.2706C23.9352 23.4711 23.8605 23.6634 23.7276 23.8051C23.5947 23.9469 23.4145 24.0265 23.2266 24.0265V24.7824C23.2266 24.9828 23.1519 25.1751 23.019 25.3168C22.8861 25.4586 22.7059 25.5382 22.5179 25.5382H21.8093C21.6214 25.5382 21.4411 25.4586 21.3082 25.3168C21.1753 25.1751 21.1007 24.9828 21.1007 24.7824V24.0265H18.2662V24.7824C18.2662 24.9828 18.1915 25.1751 18.0586 25.3168C17.9257 25.4586 17.7455 25.5382 17.5575 25.5382H16.8489C16.661 25.5382 16.4807 25.4586 16.3478 25.3168C16.2149 25.1751 16.1403 24.9828 16.1403 24.7824V24.0265C15.9523 24.0265 15.7721 23.9469 15.6392 23.8051C15.5063 23.6634 15.4317 23.4711 15.4317 23.2706V16.4678C15.4317 15.8664 15.6556 15.2896 16.0543 14.8644C16.453 14.4391 16.9937 14.2002 17.5575 14.2002H21.8093C22.3731 14.2002 22.9139 14.4391 23.3125 14.8644C23.7112 15.2896 23.9352 15.8664 23.9352 16.4678V16.4678ZM18.2662 15.7119H21.1007V14.9561H18.2662V15.7119ZM17.5575 22.5148C17.5575 22.3653 17.516 22.2191 17.4381 22.0948C17.3603 21.9705 17.2496 21.8736 17.1201 21.8164C16.9906 21.7592 16.8481 21.7442 16.7107 21.7734C16.5732 21.8026 16.4469 21.8746 16.3478 21.9803C16.2487 22.086 16.1812 22.2207 16.1539 22.3673C16.1266 22.5139 16.1406 22.6659 16.1942 22.804C16.2479 22.9421 16.3387 23.0602 16.4552 23.1432C16.5718 23.2263 16.7088 23.2706 16.8489 23.2706C17.0369 23.2706 17.2171 23.191 17.35 23.0492C17.4829 22.9075 17.5575 22.7152 17.5575 22.5148V22.5148ZM23.2266 22.5148C23.2266 22.3653 23.185 22.2191 23.1071 22.0948C23.0293 21.9705 22.9186 21.8736 22.7891 21.8164C22.6596 21.7592 22.5172 21.7442 22.3797 21.7734C22.2422 21.8026 22.116 21.8746 22.0169 21.9803C21.9178 22.086 21.8503 22.2207 21.8229 22.3673C21.7956 22.5139 21.8096 22.6659 21.8633 22.804C21.9169 22.9421 22.0077 23.0602 22.1242 23.1432C22.2408 23.2263 22.3778 23.2706 22.5179 23.2706C22.7059 23.2706 22.8861 23.191 23.019 23.0492C23.1519 22.9075 23.2266 22.7152 23.2266 22.5148V22.5148ZM23.2266 16.4678H16.1403V21.003H23.2266V16.4678V16.4678Z" fill="black"/>
<rect width="10.3267" height="0.808616" rx="0.404308" transform="matrix(0.00100808 -0.999999 0.999189 0.0402633 17.5012 14.9421)" fill="black"/>
<rect width="11.0638" height="0.808616" rx="0.404308" transform="matrix(0.00100808 -0.999999 0.999189 0.0402633 19.2056 14.8538)" fill="black"/>
<rect width="9.85263" height="0.808616" rx="0.404308" transform="matrix(0.00100808 -0.999999 0.999189 0.0402633 20.7903 14.897)" fill="black"/>
<defs>
<filter id="filter0_d_1175_5889" x="2.40576" y="1.50708" width="33.7598" height="39.0942" filterUnits="userSpaceOnUse" color-interpolation-filters="sRGB">
<feFlood flood-opacity="0" result="BackgroundImageFix"/>
<feColorMatrix in="SourceAlpha" type="matrix" values="0 0 0 0 0 0 0 0 0 0 0 0 0 0 0 0 0 0 127 0" result="hardAlpha"/>
<feOffset dy="4"/>
<feGaussianBlur stdDeviation="2"/>
<feComposite in2="hardAlpha" operator="out"/>
<feColorMatrix type="matrix" values="0 0 0 0 0 0 0 0 0 0 0 0 0 0 0 0 0 0 0.25 0"/>
<feBlend mode="normal" in2="BackgroundImageFix" result="effect1_dropShadow_1175_5889"/>
<feBlend mode="normal" in="SourceGraphic" in2="effect1_dropShadow_1175_5889" result="shape"/>
</filter>
</defs>
</svg>
