<svg width="16" height="16" viewBox="0 0 16 16" fill="none" xmlns="http://www.w3.org/2000/svg">
<rect width="16" height="16" rx="3" fill="#0ADE39"/>
<path d="M3.32469 5.77067H3.64938V7.84867H3.32469C3.28205 7.84867 3.23983 7.83971 3.20044 7.8223C3.16104 7.8049 3.12525 7.77939 3.0951 7.74723C3.06495 7.71507 3.04103 7.67689 3.02472 7.63487C3.0084 7.59285 3 7.54781 3 7.50233V6.117C3 6.02515 3.03421 5.93706 3.0951 5.87211C3.15599 5.80716 3.23858 5.77067 3.32469 5.77067ZM13.0653 5.77067H12.7406V7.84867H13.0653C13.108 7.84867 13.1502 7.83971 13.1896 7.8223C13.229 7.8049 13.2648 7.77939 13.2949 7.74723C13.3251 7.71507 13.349 7.67689 13.3653 7.63487C13.3816 7.59285 13.39 7.54781 13.39 7.50233V6.117C13.39 6.02515 13.3558 5.93706 13.2949 5.87211C13.234 5.80716 13.1514 5.77067 13.0653 5.77067ZM12.0913 5.078V11.312C12.0913 11.4957 12.0228 11.6719 11.9011 11.8018C11.7793 11.9317 11.6141 12.0047 11.4419 12.0047V12.6973C11.4419 12.881 11.3735 13.0572 11.2517 13.1871C11.1299 13.317 10.9647 13.39 10.7925 13.39H10.1431C9.9709 13.39 9.80573 13.317 9.68395 13.1871C9.56217 13.0572 9.49375 12.881 9.49375 12.6973V12.0047H6.89625V12.6973C6.89625 12.881 6.82783 13.0572 6.70605 13.1871C6.58427 13.317 6.4191 13.39 6.24688 13.39H5.5975C5.42528 13.39 5.2601 13.317 5.13832 13.1871C5.01654 13.0572 4.94813 12.881 4.94813 12.6973V12.0047C4.7759 12.0047 4.61073 11.9317 4.48895 11.8018C4.36717 11.6719 4.29875 11.4957 4.29875 11.312V5.078C4.29875 4.52688 4.504 3.99833 4.86934 3.60863C5.23469 3.21893 5.7302 3 6.24688 3H10.1431C10.6598 3 11.1553 3.21893 11.5207 3.60863C11.886 3.99833 12.0913 4.52688 12.0913 5.078ZM6.89625 4.38533H9.49375V3.69267H6.89625V4.38533ZM6.24688 10.6193C6.24688 10.4823 6.20879 10.3484 6.13744 10.2345C6.06608 10.1206 5.96466 10.0318 5.84601 9.97939C5.72735 9.92697 5.59678 9.91325 5.47081 9.93998C5.34485 9.9667 5.22914 10.0327 5.13832 10.1295C5.04751 10.2264 4.98566 10.3498 4.9606 10.4842C4.93555 10.6186 4.94841 10.7578 4.99756 10.8844C5.04671 11.011 5.12994 11.1192 5.23673 11.1953C5.34352 11.2714 5.46907 11.312 5.5975 11.312C5.76973 11.312 5.9349 11.239 6.05668 11.1091C6.17846 10.9792 6.24688 10.803 6.24688 10.6193ZM11.4419 10.6193C11.4419 10.4823 11.4038 10.3484 11.3324 10.2345C11.2611 10.1206 11.1597 10.0318 11.041 9.97939C10.9223 9.92697 10.7918 9.91325 10.6658 9.93998C10.5398 9.9667 10.4241 10.0327 10.3333 10.1295C10.2425 10.2264 10.1807 10.3498 10.1556 10.4842C10.1305 10.6186 10.1434 10.7578 10.1926 10.8844C10.2417 11.011 10.3249 11.1192 10.4317 11.1953C10.5385 11.2714 10.6641 11.312 10.7925 11.312C10.9647 11.312 11.1299 11.239 11.2517 11.1091C11.3735 10.9792 11.4419 10.803 11.4419 10.6193ZM11.4419 5.078H4.94813V9.234H11.4419V5.078Z" fill="white"/>
</svg>
